# xmcd
#
# Track frame offsets: 
#        150
#        13895
#        36745
#        58280
#        77647
#        104100
#        121915
#        144085
#        167897
#        190510
#
# Disc length: 2858 seconds
#
# Revision: 0
# Processed by: cddbd v1.5.1PL0 Copyright (c) Steve Scherf et al.
# Submitted via: ExactAudioCopy v0.95a5
#
DISCID=8c0b280a
DTITLE=David Hamilton and Camp Kirkland - HIS GRACE IS GREATER
DYEAR=1999
DGENRE=
TTITLE0=Blessing and Honor
TTITLE1=Lamb of Glory
TTITLE2=His Grace Is Greater
TTITLE3=Wne Answers Aren't Enough
TTITLE4=There Is a Saavior with Jesus,Lord to Me
TTITLE5=Love Found a Way
TTITLE6=People Need the Lord
TTITLE7=Much too High a Price
TTITLE8=Calvary's Love
TTITLE9=Almighty God with The Birds Still Dance
EXTD=
EXTT0=
EXTT1=
EXTT2=
EXTT3=
EXTT4=
EXTT5=
EXTT6=
EXTT7=
EXTT8=
EXTT9=
PLAYORDER=
